<?xml version="1.0" standalone="no"?>
<!DOCTYPE svg PUBLIC "-//W3C//DTD SVG 20010904//EN"
 "http://www.w3.org/TR/2001/REC-SVG-20010904/DTD/svg10.dtd">
<svg version="1.0" xmlns="http://www.w3.org/2000/svg"
 width="268.000000pt" height="188.000000pt" viewBox="0 0 268.000000 188.000000"
 preserveAspectRatio="xMidYMid meet">
<metadata>
Created by potrace 1.10, written by Peter Selinger 2001-2011
</metadata>
<g transform="translate(0.000000,188.000000) scale(0.100000,-0.100000)"
fill="#000000" stroke="none">
<path d="M0 940 l0 -940 1340 0 1340 0 0 940 0 940 -1340 0 -1340 0 0 -940z
m1402 886 c344 -62 641 -309 769 -640 39 -102 32 -109 -9 -8 -213 519 -794
759 -1315 542 -237 -99 -439 -309 -540 -562 -48 -121 -70 -257 -63 -393 3 -66
12 -147 20 -179 8 -32 11 -55 6 -50 -5 5 -16 47 -26 93 -25 127 -16 354 20
475 100 335 337 582 664 691 133 44 329 56 474 31z m8 -101 c164 -33 349 -136
469 -260 35 -36 62 -68 59 -70 -2 -3 -31 23 -64 56 -169 174 -380 263 -629
263 -416 0 -759 -267 -877 -680 -32 -115 -32 -333 0 -454 23 -85 85 -219 126
-275 36 -49 40 -63 7 -25 -42 48 -126 219 -152 310 -30 108 -37 308 -15 421
79 391 399 685 791 729 84 9 196 3 285 -15z m-278 -371 c77 -22 68 -28 -13 -9
-300 70 -601 -126 -665 -435 -28 -135 0 -292 74 -406 49 -75 143 -162 210
-194 29 -14 52 -28 52 -33 0 -18 -128 61 -185 114 -68 65 -116 138 -153 237
-35 93 -37 244 -5 347 57 180 204 323 388 376 79 23 221 24 297 3z m158 -206
c0 -101 -1 -108 -20 -108 -19 0 -20 7 -20 108 0 101 1 108 20 108 19 0 20 -7
20 -108z m170 90 c0 -15 -9 -18 -45 -18 -42 0 -45 -2 -45 -28 0 -26 2 -27 45
-24 41 4 45 2 45 -18 0 -20 -4 -22 -45 -18 -45 3 -45 3 -45 -29 0 -33 0 -33
48 -33 37 0 49 -4 49 -15 0 -12 -15 -15 -74 -15 l-73 0 0 108 0 107 70 0 c60
0 70 -2 70 -17z m170 0 c0 -15 -9 -18 -45 -18 -42 0 -45 -2 -45 -28 0 -26 2
-27 45 -24 41 4 45 2 45 -18 0 -20 -4 -22 -45 -18 -45 3 -45 3 -45 -29 0 -33
0 -33 50 -33 38 0 50 -4 50 -15 0 -12 -15 -15 -75 -15 l-75 0 0 108 0 107 70
0 c60 0 70 -2 70 -17z m174 0 c3 -15 -3 -18 -45 -18 -47 0 -49 -1 -49 -28 0
-26 2 -27 45 -24 41 4 45 2 45 -18 0 -20 -4 -22 -45 -18 -45 3 -45 3 -45 -29
0 -33 0 -33 50 -33 38 0 50 -4 50 -15 0 -12 -15 -15 -75 -15 l-75 0 0 108 0
107 69 0 c58 0 71 -3 75 -17z m-692 -37 c31 -12 70 -103 92 -217 22 -116 18
-330 -8 -369 -19 -30 -19 -30 1 -13 11 10 24 18 30 18 18 0 3 -38 -16 -43 -11
-2 -23 -22 -31 -51 -7 -25 -18 -46 -24 -46 -13 -1 -51 -50 -38 -50 4 0 17 8
28 18 11 10 26 17 34 15 11 -3 12 -2 3 4 -10 7 -2 20 27 48 l40 39 0 224 0
225 139 -5 c149 -5 174 -12 207 -63 21 -33 22 -112 1 -152 -23 -44 -68 -65
-150 -71 l-68 -5 3 -78 3 -79 -67 0 c-42 0 -68 -4 -68 -11 0 -6 9 -8 23 -4 17
6 12 -3 -23 -39 -199 -206 -567 -122 -671 154 -55 146 -24 318 78 431 72 80
159 125 263 138 58 7 149 -2 192 -18z m-551 -194 c-18 -23 -48 -117 -55 -179
-21 -171 87 -373 242 -452 193 -98 393 -66 545 87 38 38 63 58 56 46 -21 -40
-107 -115 -169 -148 -396 -211 -833 207 -645 617 14 30 28 52 32 49 3 -4 1
-13 -6 -20z m1705 -8 c51 -13 104 -66 104 -104 0 -24 -3 -25 -65 -25 -58 0
-65 2 -65 20 0 36 -75 55 -99 26 -7 -8 -11 -27 -9 -43 3 -26 10 -30 96 -59 51
-17 103 -41 116 -53 35 -33 41 -82 18 -135 -27 -61 -79 -80 -196 -74 -112 6
-156 35 -172 116 l-6 32 65 0 c63 0 65 -1 70 -29 8 -40 57 -60 92 -37 25 16
31 39 19 70 -3 9 -42 26 -92 41 -58 18 -94 36 -115 56 -27 27 -29 35 -25 80
10 104 121 154 264 118z m-306 -44 l0 -45 -90 0 -90 0 0 -45 0 -45 88 0 87 0
0 -46 1 -45 -88 3 -88 3 0 -47 0 -48 95 0 95 0 0 -45 0 -45 -160 0 -160 0 0
225 0 225 155 0 155 0 0 -45z m-1812 -711 c43 -30 14 -84 -45 -84 -32 0 -33
-1 -33 -40 0 -22 -4 -40 -10 -40 -6 0 -10 37 -10 90 l0 90 38 0 c21 0 48 -7
60 -16z m711 2 c14 -16 -1 -56 -20 -56 -6 0 0 -15 13 -32 18 -26 23 -29 26
-15 2 9 8 17 13 17 6 0 7 -9 4 -21 -4 -13 0 -27 11 -40 15 -17 15 -19 1 -19
-8 0 -17 5 -19 11 -3 9 -9 9 -25 0 -12 -6 -31 -11 -42 -11 -46 0 -70 68 -32
92 15 9 17 16 9 34 -19 42 33 74 61 40z m251 4 c0 -5 -20 -10 -45 -10 -43 0
-45 -1 -45 -30 0 -28 2 -30 40 -30 23 0 40 -5 40 -11 0 -8 -14 -10 -40 -6 -40
5 -40 5 -40 -29 0 -34 0 -34 45 -34 25 0 45 -4 45 -10 0 -5 -25 -10 -55 -10
l-55 0 0 90 0 90 55 0 c30 0 55 -4 55 -10z m772 -7 c10 -9 18 -20 18 -25 0
-14 -28 -9 -34 8 -4 10 -15 14 -33 12 -39 -4 -38 -38 2 -56 53 -23 60 -29 63
-49 7 -46 -76 -73 -112 -37 -20 20 -20 34 -1 34 8 0 15 -6 15 -14 0 -20 36
-26 59 -10 27 19 17 40 -24 54 -18 6 -40 19 -50 30 -16 18 -17 21 -1 45 20 30
69 34 98 8z m318 2 c0 -8 -4 -15 -10 -15 -5 0 -10 7 -10 15 0 8 5 15 10 15 6
0 10 -7 10 -15z m418 -1 c37 -26 23 -74 -23 -74 -42 0 -59 44 -29 74 19 20 24
20 52 0z m-235 -25 c-5 -17 -2 -19 19 -14 21 5 26 1 42 -46 l19 -52 19 52 c11
28 24 51 30 51 5 0 8 -4 6 -8 -1 -4 -16 -45 -33 -90 -16 -45 -35 -82 -41 -82
-9 0 -10 7 -2 27 8 22 6 39 -10 78 -27 68 -52 73 -52 11 0 -34 4 -46 15 -46 8
0 15 -5 15 -11 0 -6 -10 -9 -22 -7 -20 3 -23 10 -26 56 -2 28 -7 52 -13 52 -5
0 -9 5 -9 11 0 5 4 8 9 5 5 -3 11 3 14 14 3 11 10 20 15 20 6 0 8 -9 5 -21z
m-2111 -40 c37 -49 -5 -110 -65 -96 -27 7 -49 48 -40 74 20 57 71 68 105 22z
m60 -21 l15 -53 15 50 c8 28 21 50 28 50 7 0 21 -22 30 -50 l18 -50 12 48 c11
43 25 65 35 55 9 -8 -38 -128 -50 -128 -7 0 -19 22 -26 50 -14 56 -20 55 -38
-7 -6 -24 -17 -43 -24 -43 -7 0 -22 29 -34 65 -16 48 -18 65 -9 65 7 0 20 -24
28 -52z m250 40 c8 -7 18 -23 21 -35 5 -22 2 -23 -45 -23 -50 0 -50 0 -36 -22
20 -29 32 -32 52 -12 20 20 34 11 16 -11 -16 -20 -64 -19 -81 1 -7 9 -12 32
-12 52 2 53 47 80 85 50z m68 1 c0 -8 5 -7 15 1 11 9 19 10 26 3 7 -7 2 -12
-15 -17 -24 -6 -26 -11 -26 -56 0 -28 -4 -50 -10 -50 -6 0 -10 28 -10 65 0 37
4 65 10 65 6 0 10 -5 10 -11z m500 -1 c0 -9 3 -9 12 0 18 18 56 14 68 -7 15
-29 13 -111 -3 -111 -9 0 -12 10 -9 30 7 46 -5 80 -28 80 -27 0 -43 -35 -35
-76 5 -27 3 -34 -10 -34 -12 0 -15 13 -15 65 0 37 4 65 10 65 6 0 10 -5 10
-12z m204 -4 c9 -8 16 -24 16 -35 0 -16 -7 -19 -45 -19 -49 0 -50 -1 -35 -31
13 -23 28 -24 52 -2 22 19 36 10 18 -12 -19 -23 -66 -19 -84 7 -22 31 -20 64
4 88 24 24 53 26 74 4z m66 4 c0 -9 3 -9 12 0 14 14 28 16 28 3 0 -5 -9 -11
-20 -14 -17 -4 -20 -14 -20 -56 0 -34 -4 -51 -12 -51 -10 0 -12 18 -10 65 2
36 8 65 13 65 5 0 9 -5 9 -12z m150 -68 c0 -83 -9 -100 -51 -100 -29 0 -70 31
-50 38 6 2 18 -4 27 -13 20 -20 36 -15 51 15 14 28 9 40 -9 22 -28 -28 -78 3
-78 47 0 46 25 70 70 68 l40 -1 0 -76z m55 30 c9 -28 18 -50 20 -50 2 0 11 22
20 50 9 28 21 50 27 50 6 0 8 -6 6 -12 -47 -132 -62 -168 -69 -168 -4 0 -5 15
-3 33 4 20 -2 49 -15 80 -23 54 -26 67 -12 67 5 0 17 -22 26 -50z m387 33 c22
-20 24 -76 2 -97 -47 -48 -125 16 -93 77 22 41 59 49 91 20z m132 1 c9 -8 16
-20 16 -25 0 -15 -17 -10 -24 6 -8 22 -43 18 -56 -5 -13 -25 -3 -67 18 -75 11
-4 23 2 35 16 20 25 37 17 21 -9 -17 -27 -69 -27 -88 0 -44 63 26 145 78 92z
m56 -49 c0 -37 -4 -65 -10 -65 -6 0 -10 28 -10 65 0 37 4 65 10 65 6 0 10 -28
10 -65z m118 53 c5 -7 13 -23 16 -35 7 -22 4 -23 -39 -23 -38 0 -46 -3 -43
-16 2 -9 11 -22 21 -28 15 -9 21 -7 32 8 8 11 18 17 21 13 4 -4 1 -13 -6 -22
-15 -18 -61 -20 -78 -3 -17 17 -15 84 4 102 19 19 58 21 72 4z"/>
<path d="M1680 1150 c0 -5 5 -10 11 -10 5 0 7 5 4 10 -3 6 -8 10 -11 10 -2 0
-4 -4 -4 -10z"/>
<path d="M955 1190 c-3 -5 1 -10 9 -10 8 0 18 5 21 10 3 6 -1 10 -9 10 -8 0
-18 -4 -21 -10z"/>
<path d="M864 1159 c-25 -7 -36 -19 -53 -61 -12 -28 -20 -52 -19 -53 2 -2 38
0 81 2 l77 6 0 58 c0 58 -1 59 -27 58 -16 0 -42 -5 -59 -10z"/>
<path d="M990 1112 l0 -59 43 -1 c23 -1 59 -4 80 -8 20 -3 37 -3 37 1 0 3 -10
28 -21 55 -18 42 -27 51 -58 60 -20 5 -46 10 -58 10 -21 0 -23 -4 -23 -58z"/>
<path d="M780 1145 c0 -9 -28 -43 -61 -76 -34 -33 -60 -62 -57 -64 2 -2 21 2
43 9 31 11 42 21 52 52 7 21 22 46 33 56 24 22 26 38 5 38 -8 0 -15 -7 -15
-15z"/>
<path d="M965 1040 c-3 -5 1 -10 10 -10 9 0 13 5 10 10 -3 6 -8 10 -10 10 -2
0 -7 -4 -10 -10z"/>
<path d="M759 1013 c-13 -16 -12 -17 4 -4 9 7 17 15 17 17 0 8 -8 3 -21 -13z"/>
<path d="M836 1009 c-27 -4 -53 -12 -57 -16 -5 -5 -13 -46 -17 -91 l-8 -82 98
0 98 0 0 100 0 101 -32 -3 c-18 -1 -55 -6 -82 -9z"/>
<path d="M990 921 l0 -101 100 0 101 0 -5 33 c-3 17 -8 57 -11 88 -7 64 0 60
-127 75 l-58 6 0 -101z"/>
<path d="M621 984 c-15 -34 -11 -37 17 -15 20 15 21 19 9 29 -11 10 -16 7 -26
-14z"/>
<path d="M682 964 c-54 -24 -63 -37 -76 -106 l-7 -38 61 0 60 0 0 43 c0 23 5
60 10 82 5 22 8 40 7 41 -1 1 -26 -9 -55 -22z"/>
<path d="M1270 801 c0 -93 -2 -175 -5 -183 -10 -26 17 -46 58 -41 l37 5 0 63
c0 81 14 95 99 95 58 0 66 3 97 34 27 27 34 42 34 74 0 101 -35 122 -205 122
l-115 0 0 -169z m217 117 c26 -24 31 -82 10 -109 -30 -40 -100 -52 -123 -21
-17 21 -18 124 -2 140 20 20 89 15 115 -10z"/>
<path d="M1380 860 l0 -60 39 0 c47 0 71 20 71 59 0 37 -29 61 -73 61 l-37 0
0 -60z"/>
<path d="M580 804 c0 -8 5 -12 10 -9 6 4 8 11 5 16 -9 14 -15 11 -15 -7z"/>
<path d="M726 812 c-3 -6 -1 -14 5 -17 15 -10 25 3 12 16 -7 7 -13 7 -17 1z"/>
<path d="M960 800 c0 -5 5 -10 10 -10 6 0 10 5 10 10 0 6 -4 10 -10 10 -5 0
-10 -4 -10 -10z"/>
<path d="M600 775 c0 -2 5 -27 11 -55 10 -47 14 -52 60 -75 26 -14 52 -25 57
-25 6 0 6 18 1 43 -4 23 -8 59 -9 80 l0 37 -60 0 c-33 0 -60 -2 -60 -5z"/>
<path d="M763 698 c4 -45 10 -85 15 -90 4 -4 45 -12 90 -16 l82 -8 0 98 0 98
-96 0 -97 0 6 -82z"/>
<path d="M990 682 l0 -98 70 7 c105 12 108 13 115 67 3 26 8 64 10 85 l5 37
-100 0 -100 0 0 -98z"/>
<path d="M610 646 c0 -16 24 -55 31 -50 16 9 10 33 -11 44 -11 6 -20 9 -20 6z"/>
<path d="M660 602 c0 -5 29 -38 64 -74 34 -35 65 -69 67 -75 2 -6 15 -14 29
-18 l25 -8 -22 19 c-31 27 -73 93 -73 115 0 11 -7 19 -15 19 -9 0 -29 7 -45
15 -17 9 -30 12 -30 7z"/>
<path d="M750 595 c7 -9 15 -13 17 -11 7 7 -7 26 -19 26 -6 0 -6 -6 2 -15z"/>
<path d="M795 545 c9 -22 21 -50 26 -63 9 -24 34 -36 93 -47 l36 -7 0 59 0 60
-72 7 c-39 3 -78 12 -86 18 -11 9 -10 3 3 -27z"/>
<path d="M965 570 c-3 -5 -1 -10 4 -10 6 0 11 5 11 10 0 6 -2 10 -4 10 -3 0
-8 -4 -11 -10z"/>
<path d="M1115 560 c-16 -4 -51 -8 -77 -9 l-48 -1 0 -60 c0 -33 4 -60 10 -60
14 0 110 21 110 25 0 1 11 28 25 59 14 31 21 55 17 55 -4 -1 -20 -5 -37 -9z"/>
<path d="M966 421 c-4 -5 -2 -12 3 -15 5 -4 12 -2 15 3 4 5 2 12 -3 15 -5 4
-12 2 -15 -3z"/>
<path d="M2082 965 c-39 -17 -66 -72 -57 -116 8 -35 49 -61 130 -84 64 -18
115 -57 115 -88 0 -28 -54 -77 -85 -77 -17 0 -39 12 -62 35 -26 26 -43 35 -69
35 -43 0 -45 -22 -4 -60 33 -31 67 -40 147 -40 99 0 153 40 153 113 0 53 -31
81 -121 107 -51 15 -83 31 -101 51 -35 37 -35 53 -2 84 36 33 83 33 114 0 17
-18 34 -25 62 -25 21 0 38 3 38 6 0 19 -26 48 -55 60 -44 18 -160 17 -203 -1z"/>
<path d="M1670 775 l0 -195 135 0 c113 0 135 2 135 15 0 12 -14 15 -62 16 -35
1 -67 1 -72 0 -5 -1 -17 6 -27 15 -22 20 -27 102 -7 122 7 7 42 12 85 12 66 0
73 2 73 20 0 18 -7 20 -73 20 -43 0 -78 5 -85 12 -7 7 -12 31 -12 53 0 61 20
75 108 75 57 0 72 3 72 15 0 13 -22 15 -135 15 l-135 0 0 -195z"/>
<path d="M70 205 c0 -30 3 -35 24 -35 14 0 32 7 40 16 24 23 4 54 -34 54 -28
0 -30 -3 -30 -35z"/>
<path d="M814 235 c-4 -8 -3 -23 0 -32 6 -15 8 -15 23 -1 16 17 12 48 -7 48
-6 0 -13 -7 -16 -15z"/>
<path d="M795 156 c-27 -41 10 -80 55 -56 20 11 20 11 -6 45 -15 19 -28 35
-30 35 -2 0 -10 -11 -19 -24z"/>
<path d="M2564 225 c-10 -25 4 -47 28 -43 17 2 24 11 26 31 3 23 0 27 -23 27
-14 0 -28 -7 -31 -15z m37 -4 c7 11 9 9 9 -7 0 -12 -6 -21 -15 -21 -9 0 -15 9
-14 21 0 13 3 16 6 7 5 -11 7 -11 14 0z"/>
<path d="M197 184 c-13 -13 -7 -71 9 -85 26 -21 49 1 49 47 0 34 -3 39 -25 42
-14 2 -29 0 -33 -4z"/>
<path d="M527 184 c-17 -17 -5 -34 24 -34 24 0 30 4 27 18 -3 17 -38 29 -51
16z"/>
<path d="M1292 178 c-20 -20 -14 -28 24 -28 28 0 35 3 32 18 -4 21 -39 27 -56
10z"/>
<path d="M1488 165 c-15 -34 -1 -60 33 -60 21 0 24 4 24 40 0 34 -3 40 -22 43
-17 2 -26 -4 -35 -23z"/>
<path d="M1947 184 c-13 -13 -7 -71 9 -85 26 -21 49 1 49 47 0 34 -3 39 -25
42 -14 2 -29 0 -33 -4z"/>
<path d="M2257 183 c-18 -18 -5 -33 29 -33 29 0 35 3 30 16 -3 9 -6 18 -6 20
0 7 -46 5 -53 -3z"/>
</g>
</svg>
