<svg width="347" height="244" viewBox="0 0 347 244" fill="none" xmlns="http://www.w3.org/2000/svg">
<path d="M180.933 3.19995C226.8 11.4666 266.4 44.4 283.467 88.5333C288.667 102.133 287.733 103.067 282.267 89.6C253.867 20.3999 176.4 -11.6001 106.933 17.3333C75.3334 30.5333 48.4 58.5333 34.9334 92.2666C28.5334 108.4 25.6 126.533 26.5334 144.667C26.9334 153.467 28.1334 164.267 29.2 168.533C30.2667 172.8 30.6667 175.867 30 175.2C29.3334 174.533 27.8667 168.933 26.5334 162.8C23.2 145.867 24.4 115.6 29.2 99.4666C42.5334 54.8 74.1334 21.8666 117.733 7.33328C135.467 1.46662 161.6 -0.133385 180.933 3.19995ZM182 16.6666C203.867 21.0666 228.533 34.7999 244.533 51.3333C249.2 56.1333 252.8 60.4 252.4 60.6666C252.133 61.0666 248.267 57.6 243.867 53.2C221.333 30 193.2 18.1333 160 18.1333C104.533 18.1333 58.8 53.7333 43.0667 108.8C38.8 124.133 38.8 153.2 43.0667 169.333C46.1334 180.667 54.4 198.533 59.8667 206C64.6667 212.533 65.2 214.4 60.8 209.333C55.2 202.933 44 180.133 40.5334 168C36.5334 153.6 35.6 126.933 38.5334 111.867C49.0667 59.7333 91.7334 20.5333 144 14.6666C155.2 13.4666 170.133 14.2666 182 16.6666ZM144.933 66.1333C155.2 69.0666 154 69.8666 143.2 67.3333C103.2 57.9999 63.0667 84.1333 54.5334 125.333C50.8 143.333 54.5334 164.267 64.4 179.467C70.9334 189.467 83.4667 201.067 92.4 205.333C96.2667 207.2 99.3334 209.067 99.3334 209.733C99.3334 212.133 82.2667 201.6 74.6667 194.533C65.6 185.867 59.2 176.133 54.2667 162.933C49.6 150.533 49.3334 130.4 53.6 116.667C61.2 92.6666 80.8 73.6 105.333 66.5333C115.867 63.4666 134.8 63.3333 144.933 66.1333ZM166 93.6C166 107.067 165.867 108 163.333 108C160.8 108 160.667 107.067 160.667 93.6C160.667 80.1333 160.8 79.2 163.333 79.2C165.867 79.2 166 80.1333 166 93.6ZM188.667 81.6C188.667 83.6 187.467 84 182.667 84C177.067 84 176.667 84.2666 176.667 87.7333C176.667 91.2 176.933 91.3333 182.667 90.9333C188.133 90.4 188.667 90.6666 188.667 93.3333C188.667 95.9999 188.133 96.2666 182.667 95.7333C176.667 95.3333 176.667 95.3333 176.667 99.6C176.667 104 176.667 104 183.067 104C188 104 189.6 104.533 189.6 106C189.6 107.6 187.6 108 179.733 108H170V79.3333H179.333C187.333 79.3333 188.667 79.6 188.667 81.6ZM211.333 81.6C211.333 83.6 210.133 84 205.333 84C199.733 84 199.333 84.2666 199.333 87.7333C199.333 91.2 199.6 91.3333 205.333 90.9333C210.8 90.4 211.333 90.6666 211.333 93.3333C211.333 95.9999 210.8 96.2666 205.333 95.7333C199.333 95.3333 199.333 95.3333 199.333 99.6C199.333 104 199.333 104 206 104C211.067 104 212.667 104.533 212.667 106C212.667 107.6 210.667 108 202.667 108H192.667V79.3333H202C210 79.3333 211.333 79.6 211.333 81.6ZM234.533 81.6C234.933 83.6 234.133 84 228.533 84C222.267 84 222 84.1333 222 87.7333C222 91.2 222.267 91.3333 228 90.9333C233.467 90.4 234 90.6666 234 93.3333C234 95.9999 233.467 96.2666 228 95.7333C222 95.3333 222 95.3333 222 99.6C222 104 222 104 228.667 104C233.733 104 235.333 104.533 235.333 106C235.333 107.6 233.333 108 225.333 108H215.333V79.3333H224.533C232.267 79.3333 234 79.7333 234.533 81.6ZM142.267 86.5333C146.4 88.1333 151.6 100.267 154.533 115.467C157.467 130.933 156.933 159.467 153.467 164.667C150.933 168.667 150.933 168.667 153.6 166.4C155.067 165.067 156.8 164 157.6 164C160 164 158 169.067 155.467 169.733C154 170 152.4 172.667 151.333 176.533C150.4 179.867 148.933 182.667 148.133 182.667C146.4 182.8 141.333 189.333 143.067 189.333C143.6 189.333 145.333 188.267 146.8 186.933C148.267 185.6 150.267 184.667 151.333 184.933C152.8 185.333 152.933 185.2 151.733 184.4C150.4 183.467 151.467 181.733 155.333 178L160.667 172.8V112.933L179.2 113.6C199.067 114.267 202.4 115.2 206.8 122C209.6 126.4 209.733 136.933 206.933 142.267C203.867 148.133 197.867 150.933 186.933 151.733L177.867 152.4L178.667 173.333H169.733C164.133 173.333 160.667 173.867 160.667 174.8C160.667 175.6 161.867 175.867 163.733 175.333C166 174.533 165.333 175.733 160.667 180.533C134.133 208 85.0667 196.8 71.2 160C63.8667 140.533 68 117.6 81.6 102.533C91.2 91.8666 102.8 85.8666 116.667 84.1333C124.4 83.2 136.533 84.4 142.267 86.5333ZM68.8 112.4C66.4 115.467 62.4 128 61.4667 136.267C58.6667 159.067 73.0667 186 93.7334 196.533C119.467 209.6 146.133 205.333 166.4 184.933C171.467 179.867 174.8 177.2 173.867 178.8C171.067 184.133 159.6 194.133 151.333 198.533C98.5334 226.667 40.2667 170.933 65.3334 116.267C67.2 112.267 69.0667 109.333 69.6 109.733C70 110.267 69.7334 111.467 68.8 112.4ZM296.133 113.467C302.933 115.2 310 122.267 310 127.333C310 130.533 309.6 130.667 301.333 130.667C293.6 130.667 292.667 130.4 292.667 128C292.667 123.2 282.667 120.667 279.467 124.533C278.533 125.6 278 128.133 278.267 130.267C278.667 133.733 279.6 134.267 291.067 138.133C297.867 140.4 304.8 143.6 306.533 145.2C311.2 149.6 312 156.133 308.933 163.2C305.333 171.333 298.4 173.867 282.8 173.067C267.867 172.267 262 168.4 259.867 157.6L259.067 153.333H267.733C276.133 153.333 276.4 153.467 277.067 157.2C278.133 162.533 284.667 165.2 289.333 162.133C292.667 160 293.467 156.933 291.867 152.8C291.467 151.6 286.267 149.333 279.6 147.333C271.867 144.933 267.067 142.533 264.267 139.867C260.667 136.267 260.4 135.2 260.933 129.2C262.267 115.333 277.067 108.667 296.133 113.467ZM255.333 125.333H231.333V137.333H254.667V143.467L254.8 149.467L231.333 148.667V161.333H256.667V173.333H214V113.333H255.333V125.333ZM13.7334 214.133C19.4667 218.133 15.6 225.333 7.73335 225.333C3.46669 225.333 3.33335 225.467 3.33335 230.667C3.33335 233.6 2.80002 236 2.00002 236C1.20002 236 0.666687 231.067 0.666687 224V212H5.73335C8.53335 212 12.1334 212.933 13.7334 214.133ZM108.533 213.867C110.4 216 108.4 221.333 105.867 221.333C105.067 221.333 105.867 223.333 107.6 225.6C110 229.067 110.667 229.467 111.067 227.6C111.333 226.4 112.133 225.333 112.8 225.333C113.6 225.333 113.733 226.533 113.333 228.133C112.8 229.867 113.333 231.733 114.8 233.467C116.8 235.733 116.8 236 114.933 236C113.867 236 112.667 235.333 112.4 234.533C112 233.333 111.2 233.333 109.067 234.533C107.467 235.333 104.933 236 103.467 236C97.3334 236 94.1334 226.933 99.2 223.733C101.2 222.533 101.467 221.6 100.4 219.2C97.8667 213.6 104.8 209.333 108.533 213.867ZM142 213.333C142 214 139.333 214.667 136 214.667C130.267 214.667 130 214.8 130 218.667C130 222.4 130.267 222.667 135.333 222.667C138.4 222.667 140.667 223.333 140.667 224.133C140.667 225.2 138.8 225.467 135.333 224.933C130 224.267 130 224.267 130 228.8C130 233.333 130 233.333 136 233.333C139.333 233.333 142 233.867 142 234.667C142 235.333 138.667 236 134.667 236H127.333V212H134.667C138.667 212 142 212.533 142 213.333ZM244.933 214.267C246.267 215.467 247.333 216.933 247.333 217.6C247.333 219.467 243.6 218.8 242.8 216.533C242.267 215.2 240.8 214.667 238.4 214.933C233.2 215.467 233.333 220 238.667 222.4C245.733 225.467 246.667 226.267 247.067 228.933C248 235.067 236.933 238.667 232.133 233.867C229.467 231.2 229.467 229.333 232 229.333C233.067 229.333 234 230.133 234 231.2C234 233.867 238.8 234.667 241.867 232.533C245.467 230 244.133 227.2 238.667 225.333C236.267 224.533 233.333 222.8 232 221.333C229.867 218.933 229.733 218.533 231.867 215.333C234.533 211.333 241.067 210.8 244.933 214.267ZM287.333 214C287.333 215.067 286.8 216 286 216C285.333 216 284.667 215.067 284.667 214C284.667 212.933 285.333 212 286 212C286.8 212 287.333 212.933 287.333 214ZM343.067 214.133C348 217.6 346.133 224 340 224C334.4 224 332.133 218.133 336.133 214.133C338.667 211.467 339.333 211.467 343.067 214.133ZM311.733 217.467C311.067 219.733 311.467 220 314.267 219.333C317.067 218.667 317.733 219.2 319.867 225.467L322.4 232.4L324.933 225.467C326.4 221.733 328.133 218.667 328.933 218.667C329.6 218.667 330 219.2 329.733 219.733C329.6 220.267 327.6 225.733 325.333 231.733C323.2 237.733 320.667 242.667 319.867 242.667C318.667 242.667 318.533 241.733 319.6 239.067C320.667 236.133 320.4 233.867 318.267 228.667C314.667 219.6 311.333 218.933 311.333 227.2C311.333 231.733 311.867 233.333 313.333 233.333C314.4 233.333 315.333 234 315.333 234.8C315.333 235.6 314 236 312.4 235.733C309.733 235.333 309.333 234.4 308.933 228.267C308.667 224.533 308 221.333 307.2 221.333C306.533 221.333 306 220.667 306 219.867C306 219.2 306.533 218.8 307.2 219.2C307.867 219.6 308.667 218.8 309.067 217.333C309.467 215.867 310.4 214.667 311.067 214.667C311.867 214.667 312.133 215.867 311.733 217.467ZM30.2667 222.8C35.2 229.333 29.6 237.467 21.6 235.6C18 234.667 15.0667 229.2 16.2667 225.733C18.9334 218.133 25.7334 216.667 30.2667 222.8ZM38.2667 225.6L40.2667 232.667L42.2667 226C43.3334 222.267 45.0667 219.333 46 219.333C46.9334 219.333 48.8 222.267 50 226L52.4 232.667L54 226.267C55.4667 220.533 57.3334 217.6 58.6667 218.933C59.8667 220 53.6 236 52 236C51.0667 236 49.4667 233.067 48.5334 229.333C46.6667 221.867 45.8667 222 43.4667 230.267C42.6667 233.467 41.2 236 40.2667 236C39.3334 236 37.3334 232.133 35.7334 227.333C33.6 220.933 33.3334 218.667 34.5334 218.667C35.4667 218.667 37.2 221.867 38.2667 225.6ZM71.6 220.267C72.6667 221.2 74 223.333 74.4 224.933C75.0667 227.867 74.6667 228 68.4 228C61.7334 228 61.7334 228 63.6 230.933C66.2667 234.8 67.8667 235.2 70.5334 232.533C73.2 229.867 75.0667 231.067 72.6667 234C70.5334 236.667 64.1334 236.533 61.8667 233.867C60.9334 232.667 60.2667 229.6 60.2667 226.933C60.5334 219.867 66.5334 216.267 71.6 220.267ZM80.6667 220.133C80.6667 221.2 81.3334 221.067 82.6667 220C84.1334 218.8 85.2 218.667 86.1334 219.6C87.0667 220.533 86.4 221.2 84.1334 221.867C80.9334 222.667 80.6667 223.333 80.6667 229.333C80.6667 233.067 80.1334 236 79.3334 236C78.5334 236 78 232.267 78 227.333C78 222.4 78.5334 218.667 79.3334 218.667C80.1334 218.667 80.6667 219.333 80.6667 220.133ZM147.333 220.267C147.333 221.467 147.733 221.467 148.933 220.267C151.333 217.867 156.4 218.4 158 221.2C160 225.067 159.733 236 157.6 236C156.4 236 156 234.667 156.4 232C157.333 225.867 155.733 221.333 152.667 221.333C149.067 221.333 146.933 226 148 231.467C148.667 235.067 148.4 236 146.667 236C145.067 236 144.667 234.267 144.667 227.333C144.667 222.4 145.2 218.667 146 218.667C146.8 218.667 147.333 219.333 147.333 220.267ZM174.533 220.8C175.733 221.867 176.667 224 176.667 225.467C176.667 227.6 175.733 228 170.667 228C164.133 228 164 228.133 166 232.133C167.733 235.2 169.733 235.333 172.933 232.4C175.867 229.867 177.733 231.067 175.333 234C172.8 237.067 166.533 236.533 164.133 233.067C161.2 228.933 161.467 224.533 164.667 221.333C167.867 218.133 171.733 217.867 174.533 220.8ZM183.333 220.267C183.333 221.467 183.733 221.467 184.933 220.267C186.8 218.4 188.667 218.133 188.667 219.867C188.667 220.533 187.467 221.333 186 221.733C183.733 222.267 183.333 223.6 183.333 229.2C183.333 233.733 182.8 236 181.733 236C180.4 236 180.133 233.6 180.4 227.333C180.667 222.533 181.467 218.667 182.133 218.667C182.8 218.667 183.333 219.333 183.333 220.267ZM203.333 229.333C203.333 240.4 202.133 242.667 196.533 242.667C192.667 242.667 187.2 238.533 189.867 237.6C190.667 237.333 192.267 238.133 193.467 239.333C196.133 242 198.267 241.333 200.267 237.333C202.133 233.6 201.467 232 199.067 234.4C195.333 238.133 188.667 234 188.667 228.133C188.667 222 192 218.8 198 219.067L203.333 219.2V229.333ZM210.667 225.333C211.867 229.067 213.067 232 213.333 232C213.6 232 214.8 229.067 216 225.333C217.2 221.6 218.8 218.667 219.6 218.667C220.4 218.667 220.667 219.467 220.4 220.267C214.133 237.867 212.133 242.667 211.2 242.667C210.667 242.667 210.533 240.667 210.8 238.267C211.333 235.6 210.533 231.733 208.8 227.6C205.733 220.4 205.333 218.667 207.2 218.667C207.867 218.667 209.467 221.6 210.667 225.333ZM262.267 220.933C265.2 223.6 265.467 231.067 262.533 233.867C256.267 240.267 245.867 231.733 250.133 223.6C253.067 218.133 258 217.067 262.267 220.933ZM279.867 220.8C281.067 221.867 282 223.467 282 224.133C282 226.133 279.733 225.467 278.8 223.333C277.733 220.4 273.067 220.933 271.333 224C269.6 227.333 270.933 232.933 273.733 234C275.2 234.533 276.8 233.733 278.4 231.867C281.067 228.533 283.333 229.6 281.2 233.067C278.933 236.667 272 236.667 269.467 233.067C263.6 224.667 272.933 213.733 279.867 220.8ZM287.333 227.333C287.333 232.267 286.8 236 286 236C285.2 236 284.667 232.267 284.667 227.333C284.667 222.4 285.2 218.667 286 218.667C286.8 218.667 287.333 222.4 287.333 227.333ZM303.067 220.267C303.733 221.2 304.8 223.333 305.2 224.933C306.133 227.867 305.733 228 300 228C294.933 228 293.867 228.4 294.267 230.133C294.533 231.333 295.733 233.067 297.067 233.867C299.067 235.067 299.867 234.8 301.333 232.8C302.4 231.333 303.733 230.533 304.133 231.067C304.667 231.6 304.267 232.8 303.333 234C301.333 236.4 295.2 236.667 292.933 234.4C290.667 232.133 290.933 223.2 293.467 220.8C296 218.267 301.2 218 303.067 220.267Z" stroke="white" stroke-width="1.06667"/>
<path d="M218 93.3333C218 94 218.667 94.6666 219.467 94.6666C220.133 94.6666 220.4 94 220 93.3333C219.6 92.5333 218.933 92 218.533 92C218.267 92 218 92.5333 218 93.3333Z" stroke="white" stroke-width="1.06667"/>
<path d="M121.333 87.9999C120.933 88.6666 121.467 89.3333 122.533 89.3333C123.6 89.3333 124.933 88.6666 125.333 87.9999C125.733 87.1999 125.2 86.6666 124.133 86.6666C123.067 86.6666 121.733 87.1999 121.333 87.9999Z" stroke="white" stroke-width="1.06667"/>
<path d="M109.2 92.1333C105.867 93.0666 104.4 94.6666 102.133 100.267C100.533 104 99.4667 107.2 99.6 107.333C99.8667 107.6 104.667 107.333 110.4 107.067L120.667 106.267V98.5333C120.667 90.8 120.533 90.6666 117.067 90.7999C114.933 90.7999 111.467 91.4666 109.2 92.1333Z" stroke="white" stroke-width="1.06667"/>
<path d="M126 98.3999V106.267L131.733 106.4C134.8 106.533 139.6 106.933 142.4 107.467C145.067 107.867 147.333 107.867 147.333 107.333C147.333 106.933 146 103.6 144.533 99.9999C142.133 94.3999 140.933 93.1999 136.8 91.9999C134.133 91.3333 130.667 90.6666 129.067 90.6666C126.267 90.6666 126 91.1999 126 98.3999Z" stroke="white" stroke-width="1.06667"/>
<path d="M98 93.9999C98 95.1999 94.2667 99.7333 89.8667 104.133C85.3334 108.533 81.8667 112.4 82.2667 112.667C82.5334 112.933 85.0667 112.4 88 111.467C92.1334 110 93.6 108.667 94.9333 104.533C95.8667 101.733 97.8667 98.3999 99.3334 97.0666C102.533 94.1333 102.8 91.9999 100 91.9999C98.9334 91.9999 98 92.9333 98 93.9999Z" stroke="white" stroke-width="1.06667"/>
<path d="M122.667 108C122.267 108.667 122.8 109.333 124 109.333C125.2 109.333 125.733 108.667 125.333 108C124.933 107.2 124.267 106.667 124 106.667C123.733 106.667 123.067 107.2 122.667 108Z" stroke="white" stroke-width="1.06667"/>
<path d="M95.2 111.6C93.4667 113.733 93.6 113.867 95.7334 112.133C96.9334 111.2 98 110.133 98 109.867C98 108.8 96.9334 109.467 95.2 111.6Z" stroke="white" stroke-width="1.06667"/>
<path d="M105.467 112.133C101.867 112.667 98.4 113.733 97.8667 114.267C97.2 114.933 96.1334 120.4 95.6 126.4L94.5334 137.333H120.667V110.533L116.4 110.933C114 111.067 109.067 111.733 105.467 112.133Z" stroke="white" stroke-width="1.06667"/>
<path d="M126 137.333H152.8L152.133 132.933C151.733 130.667 151.067 125.333 150.667 121.2C149.733 112.667 150.667 113.2 133.733 111.2L126 110.4V137.333Z" stroke="white" stroke-width="1.06667"/>
<path d="M76.8 115.467C74.8 120 75.3334 120.4 79.0667 117.467C81.7334 115.467 81.8667 114.933 80.2667 113.6C78.8 112.267 78.1334 112.667 76.8 115.467Z" stroke="white" stroke-width="1.06667"/>
<path d="M84.9334 118.133C77.7334 121.333 76.5334 123.067 74.8 132.267L73.8667 137.333H90V131.6C90 128.533 90.6667 123.6 91.3334 120.667C92 117.733 92.4 115.333 92.2667 115.2C92.1334 115.067 88.8 116.4 84.9334 118.133Z" stroke="white" stroke-width="1.06667"/>
<path d="M163.333 139.867C163.333 152.267 163.067 163.2 162.667 164.267C161.333 167.733 164.933 170.4 170.4 169.733L175.333 169.067V160.667C175.333 149.867 177.2 148 188.533 148C196.267 148 197.333 147.6 201.467 143.467C205.067 139.867 206 137.867 206 133.6C206 120.133 201.333 117.333 178.667 117.333H163.333V139.867ZM192.267 124.267C195.733 127.467 196.4 135.2 193.6 138.8C189.6 144.133 180.267 145.733 177.2 141.6C174.933 138.8 174.8 125.067 176.933 122.933C179.6 120.267 188.8 120.933 192.267 124.267Z" stroke="white" stroke-width="1.06667"/>
<path d="M178 140H183.2C189.467 140 192.667 137.333 192.667 132.133C192.667 127.2 188.8 124 182.933 124H178V140Z" stroke="white" stroke-width="1.06667"/>
<path d="M71.3334 139.467C71.3334 140.533 72 141.067 72.6667 140.667C73.4667 140.133 73.7334 139.2 73.3334 138.533C72.1334 136.667 71.3334 137.067 71.3334 139.467Z" stroke="white" stroke-width="1.06667"/>
<path d="M90.8 138.4C90.4 139.2 90.6667 140.267 91.4667 140.667C93.4667 142 94.8 140.267 93.0667 138.533C92.1334 137.6 91.3334 137.6 90.8 138.4Z" stroke="white" stroke-width="1.06667"/>
<path d="M122 140C122 140.667 122.667 141.333 123.333 141.333C124.133 141.333 124.667 140.667 124.667 140C124.667 139.2 124.133 138.667 123.333 138.667C122.667 138.667 122 139.2 122 140Z" stroke="white" stroke-width="1.06667"/>
<path d="M74 143.333C74 143.6 74.6667 146.933 75.4667 150.667C76.8 156.933 77.3334 157.6 83.4667 160.667C86.9334 162.533 90.4 164 91.0667 164C91.8667 164 91.8667 161.6 91.2 158.267C90.6667 155.2 90.1334 150.4 90 147.6V142.667H82C77.6 142.667 74 142.933 74 143.333Z" stroke="white" stroke-width="1.06667"/>
<path d="M95.7334 153.6C96.2667 159.6 97.0667 164.933 97.7334 165.6C98.2667 166.133 103.733 167.2 109.733 167.733L120.667 168.8V142.667H94.9334L95.7334 153.6Z" stroke="white" stroke-width="1.06667"/>
<path d="M126 168.8L135.333 167.867C149.333 166.267 149.733 166.133 150.667 158.933C151.067 155.467 151.733 150.4 152 147.6L152.667 142.667H126V168.8Z" stroke="white" stroke-width="1.06667"/>
<path d="M75.3334 160.533C75.3334 162.667 78.5334 167.867 79.4667 167.2C81.6 166 80.8 162.8 78 161.333C76.5334 160.533 75.3334 160.133 75.3334 160.533Z" stroke="white" stroke-width="1.06667"/>
<path d="M82 166.4C82 167.067 85.8667 171.467 90.5334 176.267C95.0667 180.933 99.2 185.467 99.4667 186.267C99.7334 187.067 101.467 188.133 103.333 188.667L106.667 189.733L103.733 187.2C99.6 183.6 94 174.8 94 171.867C94 170.4 93.0667 169.333 92 169.333C90.8 169.333 88.1334 168.4 86 167.333C83.7334 166.133 82 165.733 82 166.4Z" stroke="white" stroke-width="1.06667"/>
<path d="M94 167.333C94.9334 168.533 96 169.067 96.2667 168.8C97.2 167.867 95.3334 165.333 93.7334 165.333C92.9334 165.333 92.9334 166.133 94 167.333Z" stroke="white" stroke-width="1.06667"/>
<path d="M100 174C101.2 176.933 102.8 180.667 103.467 182.4C104.667 185.6 108 187.2 115.867 188.667L120.667 189.6V173.733L111.067 172.8C105.867 172.4 100.667 171.2 99.6 170.4C98.1334 169.2 98.2667 170 100 174Z" stroke="white" stroke-width="1.06667"/>
<path d="M122.667 170.667C122.267 171.333 122.533 172 123.2 172C124 172 124.667 171.333 124.667 170.667C124.667 169.867 124.4 169.333 124.133 169.333C123.733 169.333 123.067 169.867 122.667 170.667Z" stroke="white" stroke-width="1.06667"/>
<path d="M142.667 172C140.533 172.533 135.867 173.067 132.4 173.2L126 173.333V181.333C126 185.733 126.533 189.333 127.333 189.333C129.2 189.333 142 186.533 142 186C142 185.867 143.467 182.267 145.333 178.133C147.2 174 148.133 170.8 147.6 170.8C147.067 170.933 144.933 171.467 142.667 172Z" stroke="white" stroke-width="1.06667"/>
<path d="M122.8 190.533C122.267 191.2 122.533 192.133 123.2 192.533C123.867 193.067 124.8 192.8 125.2 192.133C125.733 191.467 125.467 190.533 124.8 190.133C124.133 189.6 123.2 189.867 122.8 190.533Z" stroke="white" stroke-width="1.06667"/>
<path d="M271.6 118C266.4 120.267 262.8 127.6 264 133.467C265.067 138.133 270.533 141.6 281.333 144.667C289.867 147.067 296.667 152.267 296.667 156.4C296.667 160.133 289.467 166.667 285.333 166.667C283.067 166.667 280.133 165.067 277.067 162C273.6 158.533 271.333 157.333 267.867 157.333C262.133 157.333 261.867 160.267 267.333 165.333C271.733 169.467 276.267 170.667 286.933 170.667C300.133 170.667 307.333 165.333 307.333 155.6C307.333 148.533 303.2 144.8 291.2 141.333C284.4 139.333 280.133 137.2 277.733 134.533C273.067 129.6 273.067 127.467 277.467 123.333C282.267 118.933 288.533 118.933 292.667 123.333C294.933 125.733 297.2 126.667 300.933 126.667C303.733 126.667 306 126.267 306 125.867C306 123.333 302.533 119.467 298.667 117.867C292.8 115.467 277.333 115.6 271.6 118Z" stroke="white" stroke-width="1.06667"/>
<path d="M216.667 169.333H234.667C249.733 169.333 252.667 169.067 252.667 167.333C252.667 165.733 250.8 165.333 244.4 165.2C239.733 165.067 235.467 165.067 234.8 165.2C234.133 165.333 232.533 164.4 231.2 163.2C228.267 160.533 227.6 149.6 230.267 146.933C231.2 146 235.867 145.333 241.6 145.333C250.4 145.333 251.333 145.067 251.333 142.667C251.333 140.267 250.4 140 241.6 140C235.867 140 231.2 139.333 230.267 138.4C229.333 137.467 228.667 134.267 228.667 131.333C228.667 123.2 231.333 121.333 243.067 121.333C250.667 121.333 252.667 120.933 252.667 119.333C252.667 117.6 249.733 117.333 234.667 117.333H216.667V169.333Z" stroke="white" stroke-width="1.06667"/>
<path d="M3.33335 219.333C3.33335 223.333 3.73335 224 6.53335 224C8.40002 224 10.8 223.067 11.8667 221.867C15.0667 218.8 12.4 214.667 7.33335 214.667C3.60002 214.667 3.33335 215.067 3.33335 219.333Z" stroke="white" stroke-width="1.06667"/>
<path d="M102.533 215.333C102 216.4 102.133 218.4 102.533 219.6C103.333 221.6 103.6 221.6 105.6 219.733C107.733 217.467 107.2 213.333 104.667 213.333C103.867 213.333 102.933 214.267 102.533 215.333Z" stroke="white" stroke-width="1.06667"/>
<path d="M100 225.867C96.4 231.333 101.333 236.533 107.333 233.333C110 231.867 110 231.867 106.533 227.333C104.533 224.8 102.8 222.667 102.533 222.667C102.267 222.667 101.2 224.133 100 225.867Z" stroke="white" stroke-width="1.06667"/>
<path d="M335.867 216.667C334.533 220 336.4 222.933 339.6 222.4C341.867 222.133 342.8 220.933 343.067 218.267C343.467 215.2 343.067 214.667 340 214.667C338.133 214.667 336.267 215.6 335.867 216.667ZM340.8 217.2C341.733 215.733 342 216 342 218.133C342 219.733 341.2 220.933 340 220.933C338.8 220.933 338 219.733 338.133 218.133C338.133 216.4 338.533 216 338.933 217.2C339.6 218.667 339.867 218.667 340.8 217.2Z" stroke="white" stroke-width="1.06667"/>
<path d="M20.2667 222.133C18.5334 223.867 19.3334 231.6 21.4667 233.467C24.9334 236.267 28 233.333 28 227.2C28 222.667 27.6 222 24.6667 221.6C22.8 221.333 20.8 221.6 20.2667 222.133Z" stroke="white" stroke-width="1.06667"/>
<path d="M64.2667 222.133C62 224.4 63.6 226.667 67.4667 226.667C70.6667 226.667 71.4667 226.133 71.0667 224.267C70.6667 222 66 220.4 64.2667 222.133Z" stroke="white" stroke-width="1.06667"/>
<path d="M166.267 222.933C163.6 225.6 164.4 226.667 169.467 226.667C173.2 226.667 174.133 226.267 173.733 224.267C173.2 221.467 168.533 220.667 166.267 222.933Z" stroke="white" stroke-width="1.06667"/>
<path d="M192.4 224.667C190.4 229.2 192.267 232.667 196.8 232.667C199.6 232.667 200 232.133 200 227.333C200 222.8 199.6 222 197.067 221.6C194.8 221.333 193.6 222.133 192.4 224.667Z" stroke="white" stroke-width="1.06667"/>
<path d="M253.6 222.133C251.867 223.867 252.667 231.6 254.8 233.467C258.267 236.267 261.333 233.333 261.333 227.2C261.333 222.667 260.933 222 258 221.6C256.133 221.333 254.133 221.6 253.6 222.133Z" stroke="white" stroke-width="1.06667"/>
<path d="M294.933 222.267C292.533 224.667 294.267 226.667 298.8 226.667C302.667 226.667 303.467 226.267 302.8 224.533C302.4 223.333 302 222.133 302 221.867C302 220.933 295.867 221.2 294.933 222.267Z" stroke="white" stroke-width="1.06667"/>
</svg>
